<svg width="21" height="19" viewBox="0 0 21 19" fill="none" xmlns="http://www.w3.org/2000/svg">
<path d="M0 2.16675C0 1.76892 0.138281 1.38739 0.384423 1.10609C0.630564 0.824784 0.964403 0.666748 1.3125 0.666748H19.6875C20.0356 0.666748 20.3694 0.824784 20.6156 1.10609C20.8617 1.38739 21 1.76892 21 2.16675C21 2.56457 20.8617 2.9461 20.6156 3.22741C20.3694 3.50871 20.0356 3.66675 19.6875 3.66675H1.3125C0.964403 3.66675 0.630564 3.50871 0.384423 3.22741C0.138281 2.9461 0 2.56457 0 2.16675ZM0 9.66675C0 9.26892 0.138281 8.88739 0.384423 8.60609C0.630564 8.32478 0.964403 8.16675 1.3125 8.16675H19.6875C20.0356 8.16675 20.3694 8.32478 20.6156 8.60609C20.8617 8.88739 21 9.26892 21 9.66675C21 10.0646 20.8617 10.4461 20.6156 10.7274C20.3694 11.0087 20.0356 11.1667 19.6875 11.1667H1.3125C0.964403 11.1667 0.630564 11.0087 0.384423 10.7274C0.138281 10.4461 0 10.0646 0 9.66675ZM0 17.1667C0 16.7689 0.138281 16.3874 0.384423 16.1061C0.630564 15.8248 0.964403 15.6667 1.3125 15.6667H19.6875C20.0356 15.6667 20.3694 15.8248 20.6156 16.1061C20.8617 16.3874 21 16.7689 21 17.1667C21 17.5646 20.8617 17.9461 20.6156 18.2274C20.3694 18.5087 20.0356 18.6667 19.6875 18.6667H1.3125C0.964403 18.6667 0.630564 18.5087 0.384423 18.2274C0.138281 17.9461 0 17.5646 0 17.1667Z" fill="white"/>
</svg>
