<svg width="7" height="7" viewBox="0 0 7 7" fill="none" xmlns="http://www.w3.org/2000/svg">
<path fill-rule="evenodd" clip-rule="evenodd" d="M1.5428 0.373135C1.54765 0.319506 1.56301 0.267356 1.588 0.219663C1.613 0.17197 1.64715 0.129669 1.6885 0.0951741C1.72985 0.0606795 1.77758 0.0346673 1.82899 0.0186231C1.88039 0.00257883 1.93445 -0.00318318 1.98807 0.0016659L6.24069 0.388715C6.349 0.398502 6.44898 0.450912 6.51864 0.534416C6.58831 0.617921 6.62195 0.725679 6.61216 0.833985C6.60237 0.942291 6.54996 1.04227 6.46646 1.11194C6.38295 1.1816 6.2752 1.21524 6.16689 1.20545L1.91427 0.818405C1.86064 0.813562 1.80849 0.798203 1.7608 0.773204C1.71311 0.748206 1.67081 0.714057 1.63631 0.67271C1.60182 0.631362 1.57581 0.583624 1.55976 0.532223C1.54372 0.480821 1.53795 0.426763 1.5428 0.373135Z" fill="white"/>
<path fill-rule="evenodd" clip-rule="evenodd" d="M6.62671 5.45729C6.57308 5.46214 6.51902 5.45637 6.46762 5.44033C6.41622 5.42429 6.36848 5.39827 6.32713 5.36378C6.28579 5.32928 6.25164 5.28698 6.22664 5.23929C6.20164 5.1916 6.18628 5.13945 6.18144 5.08582L5.79439 0.83402C5.7846 0.725714 5.81824 0.617956 5.88791 0.534451C5.95757 0.450947 6.05755 0.398537 6.16586 0.38875C6.27416 0.378963 6.38192 0.412602 6.46543 0.482266C6.54893 0.551929 6.60134 0.651912 6.61113 0.760218L6.99818 5.01202C7.00303 5.06565 6.99726 5.1197 6.98122 5.1711C6.96518 5.22251 6.93916 5.27024 6.90467 5.31159C6.87018 5.35294 6.82787 5.38709 6.78018 5.41209C6.73249 5.43709 6.68034 5.45244 6.62671 5.45729Z" fill="white"/>
<path fill-rule="evenodd" clip-rule="evenodd" d="M6.05449 0.945485C6.09268 0.983571 6.12297 1.02882 6.14364 1.07863C6.16431 1.12844 6.17495 1.18184 6.17495 1.23577C6.17495 1.2897 6.16431 1.3431 6.14364 1.39291C6.12297 1.44273 6.09268 1.48797 6.05449 1.52606L0.694848 6.88488C0.617519 6.95957 0.51395 7.0009 0.406447 6.99996C0.298944 6.99903 0.196108 6.95591 0.120089 6.87989C0.0440698 6.80387 0.000949673 6.70103 1.54994e-05 6.59353C-0.000918674 6.48603 0.0404079 6.38246 0.115094 6.30513L5.47392 0.945485C5.55081 0.86862 5.65508 0.825439 5.7638 0.825439C5.87252 0.825439 5.9776 0.86862 6.05449 0.945485Z" fill="white"/>
</svg>
