<svg width="19" height="17" viewBox="0 0 19 17" fill="none" xmlns="http://www.w3.org/2000/svg">
<path d="M1 5.16667C1 5.16667 4.73083 1 9.33333 1C13.9358 1 17.6667 5.16667 17.6667 5.16667" stroke="black" stroke-width="1.5" stroke-linecap="round" stroke-linejoin="round"/>
<path d="M17.2867 9.37075C17.54 9.72575 17.6667 9.90409 17.6667 10.1666C17.6667 10.4299 17.54 10.6074 17.2867 10.9624C16.1483 12.5591 13.2408 15.9999 9.33333 15.9999C5.425 15.9999 2.51833 12.5583 1.38 10.9624C1.12667 10.6074 1 10.4291 1 10.1666C1 9.90325 1.12667 9.72575 1.38 9.37075C2.51833 7.77409 5.42583 4.33325 9.33333 4.33325C13.2417 4.33325 16.1483 7.77492 17.2867 9.37075Z" stroke="black" stroke-width="1.5" stroke-linecap="round" stroke-linejoin="round"/>
<path d="M11.8333 10.1667C11.8333 9.50371 11.5699 8.86782 11.101 8.39898C10.6322 7.93014 9.99629 7.66675 9.33325 7.66675C8.67021 7.66675 8.03433 7.93014 7.56548 8.39898C7.09664 8.86782 6.83325 9.50371 6.83325 10.1667C6.83325 10.8298 7.09664 11.4657 7.56548 11.9345C8.03433 12.4034 8.67021 12.6667 9.33325 12.6667C9.99629 12.6667 10.6322 12.4034 11.101 11.9345C11.5699 11.4657 11.8333 10.8298 11.8333 10.1667Z" stroke="black" stroke-width="1.5" stroke-linecap="round" stroke-linejoin="round"/>
</svg>
